<svg xmlns="http://www.w3.org/2000/svg" width="1200" height="630" viewBox="0 0 1200 630" fill="none">
  <rect width="1200" height="630" fill="#090D16"/>
  <circle cx="200" cy="180" r="300" fill="#10B981" fill-opacity="0.15" filter="blur(90px)"/>
  <circle cx="1000" cy="480" r="320" fill="#059669" fill-opacity="0.15" filter="blur(90px)"/>
  
  <path d="M0 60H1200M0 180H1200M0 300H1200M0 420H1200M0 540H1200" stroke="#1E293B" stroke-opacity="0.4" stroke-width="1"/>
  <path d="M150 0V630M450 0V630M750 0V630M1050 0V630" stroke="#1E293B" stroke-opacity="0.4" stroke-width="1"/>

  <rect x="80" y="80" width="1040" height="470" rx="24" fill="#0F172A" fill-opacity="0.75" stroke="#334155" stroke-width="2"/>

  <rect x="130" y="140" width="220" height="38" rx="19" fill="#1E293B" stroke="#10B981" stroke-opacity="0.5"/>
  <circle cx="150" cy="159" r="6" fill="#10B981"/>
  <text x="168" y="164" font-family="system-ui, -apple-system, sans-serif" font-size="14" font-weight="700" fill="#34D399" letter-spacing="1">MONETIZATION &amp; PRICING</text>

  <text x="130" y="240" font-family="system-ui, -apple-system, sans-serif" font-size="44" font-weight="800" fill="#FFFFFF">Transparent CPM Rates &amp;</text>
  <text x="130" y="296" font-family="system-ui, -apple-system, sans-serif" font-size="44" font-weight="800" fill="#34D399">Publisher Income Calculator</text>
  <text x="130" y="360" font-family="system-ui, -apple-system, sans-serif" font-size="20" font-weight="400" fill="#94A3B8">Estimate monthly ad earnings, explore self-serve advertiser tiers, and calculate CPC value.</text>

  <g transform="translate(130, 420)">
    <rect x="0" y="0" width="200" height="60" rx="12" fill="#1E293B" fill-opacity="0.8" stroke="#334155"/>
    <text x="20" y="26" font-family="sans-serif" font-size="12" font-weight="600" fill="#64748B">AVG CPM RATE</text>
    <text x="20" y="48" font-family="sans-serif" font-size="18" font-weight="700" fill="#34D399">$1.50 - $10.00+</text>

    <rect x="220" y="0" width="200" height="60" rx="12" fill="#1E293B" fill-opacity="0.8" stroke="#334155"/>
    <text x="240" y="26" font-family="sans-serif" font-size="12" font-weight="600" fill="#64748B">MIN DEPOSIT</text>
    <text x="240" y="48" font-family="sans-serif" font-size="18" font-weight="700" fill="#60A5FA">$50 Starter</text>
  </g>
</svg>
